<svg width="1380" height="560" viewBox="0 0 1380 560" fill="none" xmlns="http://www.w3.org/2000/svg" xmlns:xlink="http://www.w3.org/1999/xlink">
<line x1="0" y1="-1" x2="1380" y2="-1" stroke="#EAEAEA" stroke-width="1" stroke-miterlimit="3.999327"/>
<line x1="0" y1="111" x2="1380" y2="111" stroke="#EAEAEA" stroke-width="1" stroke-miterlimit="3.999327"/>
<line x1="0" y1="223" x2="1380" y2="223" stroke="#EAEAEA" stroke-width="1" stroke-miterlimit="3.999327"/>
<line x1="0" y1="335" x2="1380" y2="335" stroke="#EAEAEA" stroke-width="1" stroke-miterlimit="3.999327"/>
<line x1="0" y1="447" x2="1380" y2="447" stroke="#EAEAEA" stroke-width="1" stroke-miterlimit="3.999327"/>
<line x1="0" y1="559" x2="1380" y2="559" stroke="#EAEAEA" stroke-width="1" stroke-miterlimit="3.999327"/>
<path d="M30,322C30,315.373 35.373,310 42,310L58,310C64.627,310 70,315.373 70,322L70,560L30,560Z" fill="#C6C1B8"/>
<path d="M86,62C86,55.373 91.373,50 98,50L114,50C120.627,50 126,55.373 126,62L126,560L86,560Z" fill="#FFC74C"/>
<path d="M264,300C264,293.373 269.373,288 276,288L292,288C298.627,288 304,293.373 304,300L304,560L264,560Z" fill="#C6C1B8"/>
<path d="M320,152C320,145.373 325.373,140 332,140L348,140C354.627,140 360,145.373 360,152L360,560L320,560Z" fill="#FFC74C"/>
<path d="M494,262C494,255.373 499.373,250 506,250L522,250C528.627,250 534,255.373 534,262L534,560L494,560Z" fill="#C6C1B8"/>
<path d="M550,412C550,405.373 555.373,400 562,400L578,400C584.627,400 590,405.373 590,412L590,560L550,560Z" fill="#FFC74C"/>
<path d="M724,378C724,371.373 729.373,366 736,366L752,366C758.627,366 764,371.373 764,378L764,560L724,560Z" fill="#C6C1B8"/>
<path d="M780,206C780,199.373 785.373,194 792,194L808,194C814.627,194 820,199.373 820,206L820,560L780,560Z" fill="#FFC74C"/>
<path d="M956,130C956,123.373 961.373,118 968,118L984,118C990.627,118 996,123.373 996,130L996,560L956,560Z" fill="#C6C1B8"/>
<path d="M1012,130C1012,123.373 1017.373,118 1024,118L1040,118C1046.627,118 1052,123.373 1052,130L1052,560L1012,560Z" fill="#FFC74C"/>
<path d="M1188,230C1188,223.373 1193.373,218 1200,218L1216,218C1222.627,218 1228,223.373 1228,230L1228,560L1188,560Z" fill="#C6C1B8"/>
<path d="M1244,48C1244,41.373 1249.373,36 1256,36L1272,36C1278.627,36 1284,41.373 1284,48L1284,560L1244,560Z" fill="#FFC74C"/>
</svg>
