<svg width="480" height="480" viewBox="0 0 480 480" fill="none" xmlns="http://www.w3.org/2000/svg" xmlns:xlink="http://www.w3.org/1999/xlink">
<path d="M472.884,181.994C485.126,231.142 481.506,282.902 462.54,329.866C443.574,376.83 410.238,416.59 367.302,443.456C324.364,470.322 274.028,482.914 223.5,479.432C172.97,475.95 124.838,456.572 85.992,424.07C47.147,391.568 19.579,347.61 7.236,298.488C-5.107,249.366 -1.594,197.599 17.274,150.595C36.142,103.592 69.396,63.762 112.278,36.808C155.159,9.854 205.468,-2.843 256.004,0.534L251.204,72.374C215.828,70.01 180.611,78.898 150.594,97.766C120.578,116.634 97.299,144.514 84.092,177.417C70.884,210.32 68.425,246.556 77.065,280.942C85.705,315.328 105.003,346.098 132.195,368.848C159.387,391.6 193.079,405.164 228.45,407.602C263.82,410.04 299.054,401.226 329.11,382.42C359.166,363.614 382.502,335.782 395.778,302.906C409.054,270.032 411.588,233.798 403.02,199.396L472.884,181.994Z" fill="#FFC74D"/>
<path d="M357.236,37.487C358.896,34.619 362.572,33.633 365.396,35.365C395.238,53.65 420.74,78.255 440.092,107.472C459.442,136.69 472.148,169.771 477.342,204.38C477.834,207.656 475.492,210.656 472.204,211.066L396.676,220.478C393.386,220.888 390.402,218.55 389.862,215.282C386.38,194.169 378.47,174.006 366.63,156.128C354.788,138.251 339.31,123.102 321.228,111.659C318.428,109.887 317.442,106.226 319.102,103.358L357.236,37.487Z" fill="#FF2D4D"/>
<path d="M175.388,21.347C173.769,15.87 172.96,13.132 174.246,10.902C175.531,8.673 178.213,8.024 183.576,6.727C215.7,-1.043 249.126,-2.105 281.758,3.661C314.388,9.426 345.428,21.878 372.944,40.186C377.538,43.242 379.836,44.77 380.278,47.305C380.722,49.84 379.024,52.136 375.628,56.726L329.262,119.379C325.966,123.833 324.318,126.06 322.028,126.505C319.736,126.949 317.218,125.405 312.18,122.315C297.446,113.278 281.112,107.069 264.02,104.049C246.928,101.029 229.458,101.265 212.518,104.706C206.726,105.882 203.83,106.471 201.83,105.268C199.831,104.065 199.046,101.408 197.476,96.095L175.388,21.347Z" fill="#2A62FF"/>
</svg>
