<svg width="40" height="32" viewBox="0 0 40 32" fill="none" xmlns="http://www.w3.org/2000/svg" xmlns:xlink="http://www.w3.org/1999/xlink">
<path d="M25,0.5C21.41,0.5 18.5,3.41 18.5,7C18.5,10.59 21.41,13.5 25,13.5C28.589,13.5 31.5,10.59 31.5,7C31.5,3.41 28.589,0.5 25,0.5ZM21.5,7C21.5,5.067 23.067,3.5 25,3.5C26.933,3.5 28.5,5.067 28.5,7C28.5,8.933 26.933,10.5 25,10.5C23.067,10.5 21.5,8.933 21.5,7Z" clip-rule="evenodd" fill-rule="evenodd" fill="#909090"/>
<path d="M12,6.5C8.962,6.5 6.5,8.962 6.5,12C6.5,15.038 8.962,17.5 12,17.5C15.037,17.5 17.5,15.038 17.5,12C17.5,8.962 15.037,6.5 12,6.5ZM9.5,12C9.5,10.619 10.619,9.5 12,9.5C13.38,9.5 14.5,10.619 14.5,12C14.5,13.381 13.38,14.5 12,14.5C10.619,14.5 9.5,13.381 9.5,12Z" clip-rule="evenodd" fill-rule="evenodd" fill="#909090"/>
<path d="M10.701,27.743C11.87,21.279 17.903,16.5 25,16.5C32.096,16.5 38.129,21.279 39.298,27.743C39.694,29.934 37.843,31.5 36,31.5L14,31.5C12.157,31.5 10.305,29.934 10.701,27.743ZM25,19.5C19.206,19.5 14.539,23.381 13.654,28.277C13.648,28.307 13.652,28.32 13.654,28.326C13.657,28.335 13.665,28.355 13.69,28.382C13.745,28.439 13.853,28.5 14,28.5L36,28.5C36.146,28.5 36.254,28.439 36.309,28.382C36.334,28.355 36.342,28.335 36.345,28.326C36.347,28.32 36.351,28.307 36.346,28.277C35.46,23.381 30.793,19.5 25,19.5Z" clip-rule="evenodd" fill-rule="evenodd" fill="#909090"/>
<path d="M3.667,28.309C4.451,24.425 7.885,21.5 12,21.5C12.828,21.5 13.5,20.828 13.5,20C13.5,19.172 12.828,18.5 12,18.5C6.429,18.5 1.787,22.459 0.727,27.716C0.279,29.934 2.17,31.5 4,31.5L6,31.5C6.828,31.5 7.5,30.828 7.5,30C7.5,29.172 6.828,28.5 6,28.5L4,28.5C3.852,28.5 3.745,28.439 3.695,28.385C3.672,28.361 3.666,28.342 3.666,28.342L3.665,28.335C3.665,28.335 3.664,28.324 3.667,28.309Z" fill="#909090"/>
</svg>
