<svg width="40" height="40" viewBox="0 0 40 40" fill="none" xmlns="http://www.w3.org/2000/svg" xmlns:xlink="http://www.w3.org/1999/xlink">
<path d="M33.722,29.166C33.262,29.854 33.446,30.786 34.135,31.247C34.823,31.707 35.755,31.523 36.215,30.834L33.722,29.166ZM30.834,36.215C31.523,35.755 31.707,34.823 31.247,34.135C30.786,33.446 29.854,33.262 29.166,33.722L30.834,36.215ZM38,38L37.473,39.404C38.024,39.611 38.645,39.477 39.061,39.061C39.477,38.645 39.611,38.024 39.404,37.473L38,38ZM36.404,29.473C36.114,28.698 35.249,28.305 34.473,28.596C33.698,28.886 33.305,29.751 33.596,30.527L36.404,29.473ZM30.527,33.596C29.751,33.305 28.886,33.698 28.596,34.473C28.305,35.249 28.698,36.114 29.473,36.404L30.527,33.596ZM28.001,17.5C28.829,17.5 29.501,16.828 29.501,16C29.501,15.172 28.829,14.5 28.001,14.5L28.001,17.5ZM12.001,14.5C11.172,14.5 10.501,15.172 10.501,16C10.501,16.828 11.172,17.5 12.001,17.5L12.001,14.5ZM28.001,25.5C28.829,25.5 29.501,24.828 29.501,24C29.501,23.172 28.829,22.5 28.001,22.5L28.001,25.5ZM16.001,22.5C15.172,22.5 14.501,23.172 14.501,24C14.501,24.828 15.172,25.5 16.001,25.5L16.001,22.5ZM0.5,20C0.5,30.77 9.23,39.5 20,39.5L20,36.5C10.887,36.5 3.5,29.113 3.5,20L0.5,20ZM39.5,20C39.5,9.23 30.77,0.5 20,0.5L20,3.5C29.113,3.5 36.5,10.887 36.5,20L39.5,20ZM20,0.5C9.23,0.5 0.5,9.23 0.5,20L3.5,20C3.5,10.887 10.887,3.5 20,3.5L20,0.5ZM36.215,30.834C38.29,27.735 39.5,24.007 39.5,20L36.5,20C36.5,23.394 35.477,26.545 33.722,29.166L36.215,30.834ZM20,39.5C24.007,39.5 27.735,38.29 30.834,36.215L29.166,33.722C26.545,35.477 23.394,36.5 20,36.5L20,39.5ZM39.404,37.473L36.404,29.473L33.596,30.527L36.596,38.527L39.404,37.473ZM38.527,36.596L30.527,33.596L29.473,36.404L37.473,39.404L38.527,36.596ZM28.001,14.5L12.001,14.5L12.001,17.5L28.001,17.5L28.001,14.5ZM28.001,22.5L16.001,22.5L16.001,25.5L28.001,25.5L28.001,22.5Z" fill="#1D1504"/>
</svg>
