<svg width="34" height="40" viewBox="0 0 34 40" fill="none" xmlns="http://www.w3.org/2000/svg" xmlns:xlink="http://www.w3.org/1999/xlink">
<path d="M0.947,27.33L2.361,27.832L2.361,27.832L0.947,27.33ZM2.666,22.495L1.253,21.993L1.253,21.993L2.666,22.495ZM29.329,22.495L30.743,21.993L30.743,21.993L29.329,22.495ZM31.049,27.33L32.462,26.827L32.462,26.827L31.049,27.33ZM29.164,28.5L2.832,28.5L2.832,31.5L29.164,31.5L29.164,28.5ZM2.361,27.832L4.08,22.998L1.253,21.993L-0.466,26.827L2.361,27.832ZM5.054,17.352L5.054,14.444L2.054,14.444L2.054,17.352L5.054,17.352ZM26.942,14.444L26.942,17.352L29.942,17.352L29.942,14.444L26.942,14.444ZM27.916,22.998L29.635,27.832L32.462,26.827L30.743,21.993L27.916,22.998ZM26.942,17.352C26.942,19.276 27.272,21.185 27.916,22.998L30.743,21.993C30.213,20.503 29.942,18.933 29.942,17.352L26.942,17.352ZM4.08,22.998C4.724,21.185 5.054,19.276 5.054,17.352L2.054,17.352C2.054,18.933 1.783,20.503 1.253,21.993L4.08,22.998ZM2.832,28.5C2.486,28.5 2.245,28.158 2.361,27.832L-0.466,26.827C-1.276,29.106 0.413,31.5 2.832,31.5L2.832,28.5ZM29.164,31.5C31.582,31.5 33.272,29.106 32.462,26.827L29.635,27.832C29.751,28.158 29.51,28.5 29.164,28.5L29.164,31.5ZM15.998,3.5C22.042,3.5 26.942,8.4 26.942,14.444L29.942,14.444C29.942,6.743 23.699,0.5 15.998,0.5L15.998,3.5ZM15.998,0.5C8.297,0.5 2.054,6.743 2.054,14.444L5.054,14.444C5.054,8.4 9.954,3.5 15.998,3.5L15.998,0.5ZM6.498,30C6.498,35.247 10.752,39.5 15.998,39.5L15.998,36.5C12.409,36.5 9.498,33.59 9.498,30L6.498,30ZM15.998,39.5C21.245,39.5 25.498,35.247 25.498,30L22.498,30C22.498,33.59 19.588,36.5 15.998,36.5L15.998,39.5Z" fill="#1D1504"/>
</svg>
