<svg width="36" height="36" viewBox="0 0 36 36" fill="none" xmlns="http://www.w3.org/2000/svg" xmlns:xlink="http://www.w3.org/1999/xlink">
<path d="M29.061,26.939C28.475,26.354 27.526,26.354 26.94,26.939C26.354,27.525 26.354,28.475 26.94,29.061L29.061,26.939ZM32.94,35.061C33.526,35.646 34.475,35.646 35.061,35.061C35.647,34.475 35.647,33.525 35.061,32.939L32.94,35.061ZM30.5,17C30.5,24.456 24.456,30.5 17,30.5L17,33.5C26.113,33.5 33.5,26.113 33.5,17L30.5,17ZM17,30.5C9.544,30.5 3.5,24.456 3.5,17L0.5,17C0.5,26.113 7.887,33.5 17,33.5L17,30.5ZM3.5,17C3.5,9.544 9.544,3.5 17,3.5L17,0.5C7.887,0.5 0.5,7.887 0.5,17L3.5,17ZM17,3.5C24.456,3.5 30.5,9.544 30.5,17L33.5,17C33.5,7.887 26.113,0.5 17,0.5L17,3.5ZM26.94,29.061L32.94,35.061L35.061,32.939L29.061,26.939L26.94,29.061Z" fill="#909090"/>
</svg>
