<svg width="36" height="40" viewBox="0 0 36 40" fill="none" xmlns="http://www.w3.org/2000/svg" xmlns:xlink="http://www.w3.org/1999/xlink">
<path d="M10,16.5C9.172,16.5 8.5,17.172 8.5,18C8.5,18.828 9.172,19.5 10,19.5L10,16.5ZM26,19.5C26.828,19.5 27.5,18.828 27.5,18C27.5,17.172 26.828,16.5 26,16.5L26,19.5ZM10,22.5C9.172,22.5 8.5,23.172 8.5,24C8.5,24.828 9.172,25.5 10,25.5L10,22.5ZM26,25.5C26.828,25.5 27.5,24.828 27.5,24C27.5,23.172 26.828,22.5 26,22.5L26,25.5ZM8,3.5L28,3.5L28,0.5L8,0.5L8,3.5ZM32.5,8L32.5,32L35.5,32L35.5,8L32.5,8ZM28,36.5L8,36.5L8,39.5L28,39.5L28,36.5ZM3.5,32L3.5,8L0.5,8L0.5,32L3.5,32ZM8,36.5C5.515,36.5 3.5,34.485 3.5,32L0.5,32C0.5,36.142 3.858,39.5 8,39.5L8,36.5ZM32.5,32C32.5,34.485 30.485,36.5 28,36.5L28,39.5C32.142,39.5 35.5,36.142 35.5,32L32.5,32ZM28,3.5C30.485,3.5 32.5,5.515 32.5,8L35.5,8C35.5,3.858 32.142,0.5 28,0.5L28,3.5ZM8,0.5C3.858,0.5 0.5,3.858 0.5,8L3.5,8C3.5,5.515 5.515,3.5 8,3.5L8,0.5ZM32.5,8L32.5,10L35.5,10L35.5,8L32.5,8ZM32,10.5L28,10.5L28,13.5L32,13.5L32,10.5ZM27.5,10L27.5,4L24.5,4L24.5,10L27.5,10ZM28,10.5C27.724,10.5 27.5,10.276 27.5,10L24.5,10C24.5,11.933 26.067,13.5 28,13.5L28,10.5ZM32.5,10C32.5,10.276 32.276,10.5 32,10.5L32,13.5C33.933,13.5 35.5,11.933 35.5,10L32.5,10ZM28,0.5C26.067,0.5 24.5,2.067 24.5,4L27.5,4C27.5,3.724 27.724,3.5 28,3.5L28,0.5ZM10,19.5L26,19.5L26,16.5L10,16.5L10,19.5ZM10,25.5L26,25.5L26,22.5L10,22.5L10,25.5Z" fill="#909090"/>
</svg>
