<svg width="32" height="28" viewBox="0 0 32 28" fill="none" xmlns="http://www.w3.org/2000/svg" xmlns:xlink="http://www.w3.org/1999/xlink">
<path d="M2,0.5C1.172,0.5 0.5,1.172 0.5,2C0.5,2.828 1.172,3.5 2,3.5L2,0.5ZM30,3.5C30.828,3.5 31.5,2.828 31.5,2C31.5,1.172 30.828,0.5 30,0.5L30,3.5ZM2,12.5C1.172,12.5 0.5,13.172 0.5,14C0.5,14.828 1.172,15.5 2,15.5L2,12.5ZM30,15.5C30.828,15.5 31.5,14.828 31.5,14C31.5,13.172 30.828,12.5 30,12.5L30,15.5ZM2,24.5C1.172,24.5 0.5,25.172 0.5,26C0.5,26.828 1.172,27.5 2,27.5L2,24.5ZM30,27.5C30.828,27.5 31.5,26.828 31.5,26C31.5,25.172 30.828,24.5 30,24.5L30,27.5ZM2,3.5L30,3.5L30,0.5L2,0.5L2,3.5ZM2,15.5L30,15.5L30,12.5L2,12.5L2,15.5ZM2,27.5L30,27.5L30,24.5L2,24.5L2,27.5Z" fill="#090E23"/>
</svg>
