<svg width="36" height="32" viewBox="0 0 36 32" fill="none" xmlns="http://www.w3.org/2000/svg" xmlns:xlink="http://www.w3.org/1999/xlink">
<path d="M2,10L2.377,8.548C1.882,8.42 1.357,8.552 0.982,8.899C0.606,9.246 0.434,9.76 0.523,10.263L2,10ZM5.556,30L4.079,30.263C4.206,30.978 4.828,31.5 5.556,31.5L5.556,30ZM30.444,30L30.444,31.5C31.172,31.5 31.794,30.978 31.921,30.263L30.444,30ZM34,10L35.477,10.263C35.566,9.76 35.394,9.246 35.018,8.899C34.643,8.552 34.118,8.42 33.623,8.548L34,10ZM23.333,12.769L21.989,13.435C22.304,14.071 23.023,14.4 23.71,14.221L23.333,12.769ZM18,2L19.344,1.334C19.091,0.823 18.57,0.5 18,0.5C17.43,0.5 16.909,0.823 16.656,1.334L18,2ZM12.667,12.769L12.29,14.221C12.977,14.4 13.696,14.071 14.011,13.435L12.667,12.769ZM0.523,10.263L4.079,30.263L7.032,29.737L3.477,9.737L0.523,10.263ZM5.556,31.5L30.444,31.5L30.444,28.5L5.556,28.5L5.556,31.5ZM31.921,30.263L35.477,10.263L32.523,9.737L28.968,29.737L31.921,30.263ZM33.623,8.548L22.956,11.317L23.71,14.221L34.377,11.452L33.623,8.548ZM24.678,12.104L19.344,1.334L16.656,2.666L21.989,13.435L24.678,12.104ZM16.656,1.334L11.322,12.104L14.011,13.435L19.344,2.666L16.656,1.334ZM13.044,11.317L2.377,8.548L1.623,11.452L12.29,14.221L13.044,11.317Z" fill="#909090"/>
</svg>
