<svg width="14" height="14" viewBox="0 0 14 14" fill="none" xmlns="http://www.w3.org/2000/svg" xmlns:xlink="http://www.w3.org/1999/xlink">
<path d="M11.236,0.723C11.186,0.173 10.699,-0.232 10.149,-0.182C9.599,-0.132 9.194,0.355 9.244,0.905L11.236,0.723ZM0.902,9.246C0.352,9.196 -0.134,9.602 -0.184,10.152C-0.234,10.702 0.172,11.188 0.722,11.238L0.902,9.246ZM11.171,11.023L10.175,11.114L11.171,11.023ZM9.244,0.905L10.175,11.114L12.167,10.933L11.236,0.723L9.244,0.905ZM11.116,10.172L0.902,9.246L0.722,11.238L10.936,12.164L11.116,10.172ZM10.175,11.114C10.126,10.575 10.577,10.123 11.116,10.172L10.936,12.164C11.641,12.228 12.231,11.637 12.167,10.933L10.175,11.114Z" transform="rotate(-270 5.999 5.998)" fill="#1D1504"/>
</svg>
