<svg width="14" height="14" viewBox="0 0 14 14" fill="none" xmlns="http://www.w3.org/2000/svg" xmlns:xlink="http://www.w3.org/1999/xlink">
<path d="M11.239,0.723C11.189,0.173 10.702,-0.232 10.152,-0.182C9.602,-0.132 9.197,0.355 9.247,0.905L11.239,0.723ZM0.905,9.246C0.355,9.196 -0.131,9.602 -0.181,10.152C-0.231,10.702 0.174,11.188 0.724,11.238L0.905,9.246ZM11.173,11.023L10.178,11.114L11.173,11.023ZM9.247,0.905L10.178,11.114L12.169,10.933L11.239,0.723L9.247,0.905ZM11.119,10.172L0.905,9.246L0.724,11.238L10.938,12.164L11.119,10.172ZM10.178,11.114C10.128,10.575 10.58,10.123 11.119,10.172L10.938,12.164C11.643,12.228 12.234,11.637 12.169,10.933L10.178,11.114Z" transform="rotate(-90 6.001 5.998)" fill="#1D1504"/>
</svg>
