<svg width="42" height="42" viewBox="0 0 42 42" fill="none" xmlns="http://www.w3.org/2000/svg" xmlns:xlink="http://www.w3.org/1999/xlink">
<path d="M12.061,6.075L11.747,7.542L11.747,7.542L12.061,6.075ZM15.768,4.54L14.509,3.725L14.509,3.725L15.768,4.54ZM5.588,9.783L4.121,10.097L4.121,10.097L5.588,9.783ZM9.784,5.587L10.098,4.121L10.098,4.121L9.784,5.587ZM4.54,15.768L3.725,14.508L3.725,14.508L4.54,15.768ZM6.075,12.061L7.542,11.747L7.542,11.747L6.075,12.061ZM2.585,22.967L1.77,24.226L1.77,24.226L2.585,22.967ZM2.585,17.033L3.4,18.293L3.4,18.293L2.585,17.033ZM6.075,27.94L7.542,28.254L7.542,28.254L6.075,27.94ZM4.54,24.233L5.355,22.973L5.355,22.973L4.54,24.233ZM9.784,34.413L9.469,32.946L9.469,32.946L9.784,34.413ZM5.588,30.217L4.121,29.903L4.121,29.903L5.588,30.217ZM15.768,35.461L14.509,36.276L14.509,36.276L15.768,35.461ZM12.061,33.925L12.375,35.392L12.375,35.392L12.061,33.925ZM22.967,37.416L24.227,38.231L24.227,38.231L22.967,37.416ZM17.034,37.416L18.293,36.601L18.293,36.601L17.034,37.416ZM27.94,33.925L27.626,35.392L27.626,35.392L27.94,33.925ZM24.233,35.461L22.974,34.646L22.974,34.646L24.233,35.461ZM34.413,30.217L32.947,30.531L32.947,30.531L34.413,30.217ZM30.217,34.413L30.532,32.946L30.532,32.946L30.217,34.413ZM35.461,24.233L36.276,25.492L36.276,25.492L35.461,24.233ZM33.926,27.94L35.392,27.626L35.392,27.626L33.926,27.94ZM37.416,17.033L36.601,18.293L36.601,18.293L37.416,17.033ZM37.416,22.967L36.601,21.708L36.601,21.708L37.416,22.967ZM33.926,12.061L35.392,12.375L35.392,12.375L33.926,12.061ZM35.461,15.768L36.276,14.508L36.276,14.508L35.461,15.768ZM30.217,5.587L30.532,7.054L30.532,7.054L30.217,5.587ZM34.413,9.783L32.947,9.469L32.947,9.469L34.413,9.783ZM24.233,4.54L25.492,3.725L25.492,3.725L24.233,4.54ZM27.94,6.075L27.626,4.608L27.626,4.608L27.94,6.075ZM22.967,2.584L21.708,3.399L21.708,3.399L22.967,2.584ZM17.034,2.584L18.293,3.399L18.293,3.399L17.034,2.584ZM21.708,3.399L22.974,5.355L25.492,3.725L24.227,1.769L21.708,3.399ZM28.254,7.542L30.532,7.054L29.903,4.121L27.626,4.608L28.254,7.542ZM32.947,9.469L32.459,11.747L35.392,12.375L35.88,10.097L32.947,9.469ZM34.646,17.027L36.601,18.293L38.231,15.774L36.276,14.508L34.646,17.027ZM36.601,21.708L34.646,22.973L36.276,25.492L38.231,24.226L36.601,21.708ZM32.459,28.254L32.947,30.531L35.88,29.903L35.392,27.626L32.459,28.254ZM30.532,32.946L28.254,32.458L27.626,35.392L29.903,35.88L30.532,32.946ZM22.974,34.646L21.708,36.601L24.227,38.231L25.492,36.276L22.974,34.646ZM18.293,36.601L17.027,34.646L14.509,36.276L15.774,38.231L18.293,36.601ZM11.747,32.458L9.469,32.946L10.098,35.88L12.375,35.392L11.747,32.458ZM7.054,30.531L7.542,28.254L4.609,27.626L4.121,29.903L7.054,30.531ZM5.355,22.973L3.4,21.708L1.77,24.226L3.725,25.492L5.355,22.973ZM3.4,18.293L5.355,17.027L3.725,14.508L1.77,15.774L3.4,18.293ZM7.542,11.747L7.054,9.469L4.121,10.097L4.609,12.375L7.542,11.747ZM9.469,7.054L11.747,7.542L12.375,4.608L10.098,4.121L9.469,7.054ZM17.027,5.355L18.293,3.399L15.774,1.769L14.509,3.725L17.027,5.355ZM11.747,7.542C13.79,7.98 15.892,7.109 17.027,5.355L14.509,3.725C14.05,4.434 13.201,4.785 12.375,4.608L11.747,7.542ZM7.054,9.469C6.745,8.027 8.027,6.745 9.469,7.054L10.098,4.121C6.527,3.356 3.356,6.527 4.121,10.097L7.054,9.469ZM5.355,17.027C7.109,15.891 7.98,13.79 7.542,11.747L4.609,12.375C4.785,13.201 4.434,14.05 3.725,14.508L5.355,17.027ZM3.4,21.708C2.161,20.906 2.161,19.094 3.4,18.293L1.77,15.774C-1.296,17.758 -1.296,22.243 1.77,24.226L3.4,21.708ZM7.542,28.254C7.98,26.21 7.109,24.109 5.355,22.973L3.725,25.492C4.434,25.951 4.785,26.8 4.609,27.626L7.542,28.254ZM9.469,32.946C8.027,33.255 6.745,31.974 7.054,30.531L4.121,29.903C3.356,33.473 6.527,36.644 10.098,35.88L9.469,32.946ZM17.027,34.646C15.892,32.891 13.79,32.021 11.747,32.458L12.375,35.392C13.201,35.215 14.05,35.567 14.509,36.276L17.027,34.646ZM21.708,36.601C20.907,37.84 19.094,37.84 18.293,36.601L15.774,38.231C17.758,41.296 22.243,41.296 24.227,38.231L21.708,36.601ZM28.254,32.458C26.211,32.021 24.109,32.891 22.974,34.646L25.492,36.276C25.951,35.567 26.8,35.215 27.626,35.392L28.254,32.458ZM32.947,30.531C33.256,31.974 31.974,33.255 30.532,32.946L29.903,35.88C33.474,36.644 36.645,33.473 35.88,29.903L32.947,30.531ZM34.646,22.973C32.892,24.109 32.021,26.21 32.459,28.254L35.392,27.626C35.216,26.8 35.567,25.951 36.276,25.492L34.646,22.973ZM36.601,18.293C37.84,19.094 37.84,20.906 36.601,21.708L38.231,24.226C41.297,22.243 41.297,17.758 38.231,15.774L36.601,18.293ZM32.459,11.747C32.021,13.79 32.892,15.891 34.646,17.027L36.276,14.508C35.567,14.05 35.216,13.201 35.392,12.375L32.459,11.747ZM30.532,7.054C31.974,6.745 33.256,8.027 32.947,9.469L35.88,10.097C36.645,6.527 33.474,3.356 29.903,4.121L30.532,7.054ZM22.974,5.355C24.109,7.109 26.211,7.98 28.254,7.542L27.626,4.608C26.8,4.785 25.951,4.434 25.492,3.725L22.974,5.355ZM24.227,1.769C22.243,-1.296 17.758,-1.296 15.774,1.769L18.293,3.399C19.094,2.161 20.907,2.161 21.708,3.399L24.227,1.769ZM24.501,20C24.501,22.485 22.486,24.5 20,24.5L20,27.5C24.143,27.5 27.501,24.142 27.501,20L24.501,20ZM20,24.5C17.515,24.5 15.5,22.485 15.5,20L12.5,20C12.5,24.142 15.858,27.5 20,27.5L20,24.5ZM15.5,20C15.5,17.515 17.515,15.5 20,15.5L20,12.5C15.858,12.5 12.5,15.858 12.5,20L15.5,20ZM20,15.5C22.486,15.5 24.501,17.515 24.501,20L27.501,20C27.501,15.858 24.143,12.5 20,12.5L20,15.5Z" fill="#909090"/>
</svg>
