<svg width="40" height="40" viewBox="0 0 40 40" fill="none" xmlns="http://www.w3.org/2000/svg" xmlns:xlink="http://www.w3.org/1999/xlink">
<path d="M21.5,14C21.5,13.172 20.828,12.5 20,12.5C19.172,12.5 18.5,13.172 18.5,14L21.5,14ZM18.5,30C18.5,30.828 19.172,31.5 20,31.5C20.828,31.5 21.5,30.828 21.5,30L18.5,30ZM4.5,30C4.5,30.828 5.172,31.5 6,31.5C6.828,31.5 7.5,30.828 7.5,30L4.5,30ZM32.5,30C32.5,30.828 33.172,31.5 34,31.5C34.828,31.5 35.5,30.828 35.5,30L32.5,30ZM14,3.5L26,3.5L26,0.5L14,0.5L14,3.5ZM26,12.5L14,12.5L14,15.5L26,15.5L26,12.5ZM14,12.5C11.515,12.5 9.5,10.485 9.5,8L6.5,8C6.5,12.142 9.858,15.5 14,15.5L14,12.5ZM30.5,8C30.5,10.485 28.485,12.5 26,12.5L26,15.5C30.142,15.5 33.5,12.142 33.5,8L30.5,8ZM26,3.5C28.485,3.5 30.5,5.515 30.5,8L33.5,8C33.5,3.858 30.142,0.5 26,0.5L26,3.5ZM14,0.5C9.858,0.5 6.5,3.858 6.5,8L9.5,8C9.5,5.515 11.515,3.5 14,3.5L14,0.5ZM0.5,31L0.5,37L3.5,37L3.5,31L0.5,31ZM3,39.5L9,39.5L9,36.5L3,36.5L3,39.5ZM11.5,37L11.5,31L8.5,31L8.5,37L11.5,37ZM9,28.5L3,28.5L3,31.5L9,31.5L9,28.5ZM11.5,31C11.5,29.619 10.381,28.5 9,28.5L9,31.5C8.724,31.5 8.5,31.276 8.5,31L11.5,31ZM9,39.5C10.381,39.5 11.5,38.381 11.5,37L8.5,37C8.5,36.724 8.724,36.5 9,36.5L9,39.5ZM0.5,37C0.5,38.381 1.619,39.5 3,39.5L3,36.5C3.276,36.5 3.5,36.724 3.5,37L0.5,37ZM3.5,31C3.5,31.276 3.276,31.5 3,31.5L3,28.5C1.619,28.5 0.5,29.619 0.5,31L3.5,31ZM14.5,31L14.5,37L17.5,37L17.5,31L14.5,31ZM17,39.5L23,39.5L23,36.5L17,36.5L17,39.5ZM25.5,37L25.5,31L22.5,31L22.5,37L25.5,37ZM23,28.5L17,28.5L17,31.5L23,31.5L23,28.5ZM25.5,31C25.5,29.619 24.381,28.5 23,28.5L23,31.5C22.724,31.5 22.5,31.276 22.5,31L25.5,31ZM23,39.5C24.381,39.5 25.5,38.381 25.5,37L22.5,37C22.5,36.724 22.724,36.5 23,36.5L23,39.5ZM14.5,37C14.5,38.381 15.619,39.5 17,39.5L17,36.5C17.276,36.5 17.5,36.724 17.5,37L14.5,37ZM17.5,31C17.5,31.276 17.276,31.5 17,31.5L17,28.5C15.619,28.5 14.5,29.619 14.5,31L17.5,31ZM28.5,31L28.5,37L31.5,37L31.5,31L28.5,31ZM31,39.5L37,39.5L37,36.5L31,36.5L31,39.5ZM39.5,37L39.5,31L36.5,31L36.5,37L39.5,37ZM37,28.5L31,28.5L31,31.5L37,31.5L37,28.5ZM39.5,31C39.5,29.619 38.381,28.5 37,28.5L37,31.5C36.724,31.5 36.5,31.276 36.5,31L39.5,31ZM37,39.5C38.381,39.5 39.5,38.381 39.5,37L36.5,37C36.5,36.724 36.724,36.5 37,36.5L37,39.5ZM28.5,37C28.5,38.381 29.619,39.5 31,39.5L31,36.5C31.276,36.5 31.5,36.724 31.5,37L28.5,37ZM31.5,31C31.5,31.276 31.276,31.5 31,31.5L31,28.5C29.619,28.5 28.5,29.619 28.5,31L31.5,31ZM18.5,14L18.5,30L21.5,30L21.5,14L18.5,14ZM7.5,30L7.5,26L4.5,26L4.5,30L7.5,30ZM10,23.5L30,23.5L30,20.5L10,20.5L10,23.5ZM32.5,26L32.5,30L35.5,30L35.5,26L32.5,26ZM30,23.5C31.381,23.5 32.5,24.619 32.5,26L35.5,26C35.5,22.962 33.038,20.5 30,20.5L30,23.5ZM7.5,26C7.5,24.619 8.619,23.5 10,23.5L10,20.5C6.962,20.5 4.5,22.962 4.5,26L7.5,26Z" fill="#909090"/>
</svg>
